<svg width="234" height="407" viewBox="0 0 234 407" fill="none" xmlns="http://www.w3.org/2000/svg">
<path opacity="0.2" d="M235.841 395.159L181.997 363.864L181.997 304.954L235.841 273.658C237.729 272.561 238.841 270.617 238.981 268.574C239.067 267.358 238.808 266.098 238.15 264.957C236.413 261.915 232.551 260.873 229.53 262.632L175.686 293.928L125.002 264.457V205.548L175.686 176.077L229.53 207.373C232.551 209.133 236.402 208.079 238.15 205.048C239.887 202.007 238.862 198.129 235.841 196.369L208.919 180.721L181.997 165.073V134.407C181.997 130.898 179.17 128.052 175.686 128.052C172.201 128.052 169.375 130.898 169.375 134.407V165.073L118.691 194.544L68.0076 165.073L68.0076 6.35479C68.0076 2.84608 65.181 0 61.6964 0C58.2118 0 55.3852 2.84608 55.3852 6.35479L55.3852 165.073L3.99978 197.113C-4.00019 202.5 1.99982 212 9.59892 208.519L61.6964 176.066L112.38 205.537V264.446L83.9998 281C75.9998 286 80.9998 296 89.7892 292.277L118.691 275.472L169.375 304.943L169.375 363.853L118.691 393.324L68.0076 363.853V327C68.0076 317 55.396 319 55.396 327V367.524C55.396 369.795 56.5935 371.891 58.5462 373.021L115.541 406.153C116.512 406.718 117.601 407 118.691 407C119.781 407 120.87 406.718 121.841 406.153L175.686 374.857L229.53 406.153C230.523 406.728 231.612 407 232.681 407C234.86 407 236.985 405.859 238.15 403.828C239.898 400.797 238.862 396.908 235.841 395.159Z" fill="url(#paint0_linear_75_17618)"/>
<defs>
<linearGradient id="paint0_linear_75_17618" x1="121.5" y1="6.5" x2="121.5" y2="412.5" gradientUnits="userSpaceOnUse">
<stop stop-color="#F7F7F7"/>
<stop offset="1" stop-color="#B5BCC3"/>
</linearGradient>
</defs>
</svg>
